#N canvas 471 23 1012 839 10;
#X obj 734 30 adc~;
#X obj 33 399 freeverb~;
#X msg 482 44 roomsize \$1;
#X msg 482 89 damping \$1;
#X msg 482 133 width \$1;
#X msg 482 177 wet \$1;
#X msg 482 221 dry \$1;
#X msg 516 244 print;
#X msg 535 283 freeze \$1;
#X msg 540 320 bypass \$1;
#X obj 540 301 tgl 15 0 empty empty empty 0 -6 0 8 -262144 -1 -1 0
1;
#X obj 535 264 tgl 15 0 empty empty empty 0 -6 0 8 -262144 -1 -1 0
1;
#X obj 494 198 hsl 60 18 0 1 0 1 empty empty dry 2 9 1 12 -225271 -1
-1 3005 0;
#X obj 494 154 hsl 60 18 0 1 0 1 empty empty wet 2 9 1 12 -225271 -1
-1 3268 0;
#X obj 494 110 hsl 60 18 0 1 0 1 empty empty width 2 9 1 12 -262131
-1 -1 5372 0;
#X obj 494 66 hsl 60 18 0 2 0 1 empty empty damping 2 9 1 12 -261689
-1 -1 1634 0;
#X obj 492 19 hsl 60 18 0.11 1.1 0 1 empty empty roomsize 2 9 1 12
-261689 -1 -1 4771 0;
#X floatatom 464 25 3 0 0 0 - - -, f 3;
#X floatatom 464 70 3 0 0 0 - - -, f 3;
#X floatatom 464 115 3 0 0 0 - - -, f 3;
#X floatatom 464 158 3 0 0 0 - - -, f 3;
#X floatatom 464 202 3 0 0 0 - - -, f 3;
#X msg 53 110 open 1.wav \, 1;
#X obj 54 175 readsf~ 1;
#X msg 126 138 stop;
#X msg 120 62 start;
#X obj 177 467 cos~;
#X obj 343 540 cos~;
#X obj 347 453 hsl 100 30 0 0.99 0 0 empty empty empty -2 -8 0 10 -203904
-1 -1 9106 1;
#X floatatom 404 509 5 0 0 0 - - -, f 5;
#X obj 343 509 + 0.75;
#X obj 281 590 *~;
#X obj 329 590 *~;
#X obj 343 398 loadbang;
#X msg 343 422 0.125;
#X obj 316 708 dac~;
#X floatatom 394 599 5 0 0 0 - - -, f 5;
#X obj 393 575 snapshot~;
#X floatatom 478 600 5 0 0 0 - - -, f 5;
#X obj 477 576 snapshot~;
#X obj 470 544 metro 50;
#X obj 473 510 tgl 15 0 empty empty empty 17 7 0 10 -262144 -1 -1 0
1;
#X obj 734 75 fiddle~;
#X floatatom 736 116 5 0 0 0 - - -, f 5;
#X obj 736 153 moses 60;
#X floatatom 735 190 5 0 0 0 - - -, f 5;
#X floatatom 782 191 5 0 0 0 - - -, f 5;
#X text 467 455;
#X obj 735 222 / 60;
#X floatatom 735 255 5 0 0 0 - - -, f 5;
#X text 684 497;
#X floatatom 782 254 5 0 0 0 - - -, f 5;
#X obj 782 221 / 120;
#X connect 0 0 42 0;
#X connect 1 0 31 0;
#X connect 1 0 32 0;
#X connect 1 1 31 0;
#X connect 1 1 32 0;
#X connect 2 0 1 0;
#X connect 3 0 1 0;
#X connect 4 0 1 0;
#X connect 5 0 1 0;
#X connect 6 0 1 0;
#X connect 7 0 1 0;
#X connect 8 0 1 0;
#X connect 9 0 1 0;
#X connect 10 0 9 0;
#X connect 11 0 8 0;
#X connect 12 0 6 0;
#X connect 12 0 21 0;
#X connect 13 0 5 0;
#X connect 13 0 20 0;
#X connect 14 0 4 0;
#X connect 14 0 19 0;
#X connect 15 0 3 0;
#X connect 15 0 18 0;
#X connect 16 0 2 0;
#X connect 16 0 17 0;
#X connect 22 0 23 0;
#X connect 23 0 1 0;
#X connect 23 0 1 1;
#X connect 23 0 35 0;
#X connect 23 1 1 1;
#X connect 23 1 35 1;
#X connect 24 0 23 0;
#X connect 25 0 22 0;
#X connect 26 0 31 1;
#X connect 26 0 37 0;
#X connect 27 0 32 1;
#X connect 27 0 39 0;
#X connect 28 0 29 0;
#X connect 28 0 26 0;
#X connect 28 0 30 0;
#X connect 30 0 27 0;
#X connect 31 0 35 0;
#X connect 32 0 35 1;
#X connect 33 0 34 0;
#X connect 34 0 28 0;
#X connect 37 0 36 0;
#X connect 39 0 38 0;
#X connect 40 0 39 0;
#X connect 40 0 37 0;
#X connect 41 0 40 0;
#X connect 42 0 43 0;
#X connect 43 0 44 0;
#X connect 44 0 45 0;
#X connect 44 1 46 0;
#X connect 45 0 48 0;
#X connect 46 0 52 0;
#X connect 48 0 49 0;
#X connect 48 0 14 0;
#X connect 49 0 28 0;
#X connect 49 0 16 0;
#X connect 51 0 12 0;
#X connect 52 0 51 0;
#X connect 52 0 14 0;
